<svg xmlns="http://www.w3.org/2000/svg" width="24" height="24" viewBox="0 0 24 24"><g class="nc-icon-wrapper" fill="#ffffff"><rect data-color="color-2" y="20" width="24" height="2"/> <path fill="#ffffff" d="M4,18h2c0.552,0,1-0.448,1-1V8c0-0.552-0.448-1-1-1H4C3.448,7,3,7.448,3,8v9C3,17.552,3.448,18,4,18z"/> <path fill="#ffffff" d="M11,18h2c0.552,0,1-0.448,1-1V3c0-0.552-0.448-1-1-1h-2c-0.552,0-1,0.448-1,1v14C10,17.552,10.448,18,11,18z "/> <path fill="#ffffff" d="M17,12v5c0,0.552,0.448,1,1,1h2c0.552,0,1-0.448,1-1v-5c0-0.552-0.448-1-1-1h-2C17.448,11,17,11.448,17,12z"/></g></svg>