<svg xmlns="http://www.w3.org/2000/svg" width="48" height="48" viewBox="0 0 48 48"><g class="nc-icon-wrapper" fill="#ffffff"><circle data-color="color-2" cx="10" cy="34" r="9"/> <path fill="#ffffff" d="M40,29c0.339,0,0.672,0.028,1,0.069V26c0-2.757-2.243-5-5-5h-1v-5c0-0.552,0.448-1,1-1h2v-2h-2 c-1.654,0-3,1.346-3,3v5h-4.22L24.97,5.758C24.858,5.312,24.459,5,24,5H8C7.447,5,7,5.447,7,6s0.447,1,1,1h3v12.033 C10.669,19.012,10.336,19,10,19c-1.846,0-3.648,0.331-5.357,0.985c-0.516,0.197-0.773,0.775-0.576,1.291s0.774,0.772,1.291,0.576 C6.837,21.287,8.399,21,10,21c7.168,0,13,5.832,13,13v3h9C32,32.589,35.589,29,40,29z M17.478,21 c-1.371-0.792-2.878-1.372-4.478-1.698V7h10.219l3.501,14H17.478z"/> <circle data-color="color-2" cx="40" cy="37" r="6"/></g></svg>